<svg width="30" height="22" viewBox="0 0 30 22" fill="none" xmlns="http://www.w3.org/2000/svg">
<path d="M22.5 11V5C22.5 4.20435 22.1839 3.44129 21.6213 2.87868C21.0587 2.31607 20.2956 2 19.5 2H4.5C3.70435 2 2.94129 2.31607 2.37868 2.87868C1.81607 3.44129 1.5 4.20435 1.5 5V17C1.5 17.7956 1.81607 18.5587 2.37868 19.1213C2.94129 19.6839 3.70435 20 4.5 20H19.5C20.2956 20 21.0587 19.6839 21.6213 19.1213C22.1839 18.5587 22.5 17.7956 22.5 17V11ZM22.5 11L28.5 5V17L22.5 11Z" stroke="#00B53C" stroke-width="3" stroke-linecap="round" stroke-linejoin="round"/>
</svg>
