<svg width="20" height="20" viewBox="0 0 20 20" fill="none" xmlns="http://www.w3.org/2000/svg">
<path d="M8.71683 14.2166L15.1793 7.75415L13.896 6.47081L8.71683 11.65L6.10433 9.03748L4.821 10.3208L8.71683 14.2166ZM10.0002 19.1666C8.73211 19.1666 7.54044 18.9259 6.42516 18.4443C5.30989 17.9634 4.33975 17.3104 3.51475 16.4854C2.68975 15.6604 2.03677 14.6903 1.55583 13.575C1.07427 12.4597 0.833496 11.268 0.833496 9.99998C0.833496 8.73192 1.07427 7.54026 1.55583 6.42498C2.03677 5.3097 2.68975 4.33956 3.51475 3.51456C4.33975 2.68956 5.30989 2.03629 6.42516 1.55473C7.54044 1.07379 8.73211 0.833313 10.0002 0.833313C11.2682 0.833313 12.4599 1.07379 13.5752 1.55473C14.6904 2.03629 15.6606 2.68956 16.4856 3.51456C17.3106 4.33956 17.9636 5.3097 18.4445 6.42498C18.9261 7.54026 19.1668 8.73192 19.1668 9.99998C19.1668 11.268 18.9261 12.4597 18.4445 13.575C17.9636 14.6903 17.3106 15.6604 16.4856 16.4854C15.6606 17.3104 14.6904 17.9634 13.5752 18.4443C12.4599 18.9259 11.2682 19.1666 10.0002 19.1666Z" fill="#FBBC3C" fill-opacity="0.7"/>
</svg>
