<svg width="38" height="38" viewBox="0 0 38 38" fill="none" xmlns="http://www.w3.org/2000/svg">
<path d="M34.3 19H36M30.05 7.95L31.75 6.25M19 3.7V2M7.95 7.95L6.25 6.25M3.7 19H2M15.6 36H22.4M27.5 19C27.4996 17.4676 27.0849 15.9639 26.2999 14.6479C25.5148 13.3319 24.3887 12.2526 23.0405 11.5242C21.6923 10.7957 20.1723 10.4453 18.6413 10.51C17.1103 10.5747 15.6253 11.052 14.3433 11.8915C13.0614 12.731 12.0302 13.9014 11.359 15.2789C10.6877 16.6564 10.4013 18.1898 10.5301 19.7167C10.6588 21.2436 11.198 22.7074 12.0905 23.953C12.983 25.1987 14.1956 26.1799 15.6 26.7928V30.9H22.4V26.7928C23.9161 26.1309 25.2061 25.0411 26.112 23.6569C27.0179 22.2727 27.5003 20.6543 27.5 19Z" stroke="#8375E1" stroke-width="3" stroke-linecap="round" stroke-linejoin="round"/>
</svg>
