<svg width="36" height="32" viewBox="0 0 36 32" fill="none" xmlns="http://www.w3.org/2000/svg">
<path d="M11.793 26.3669C9.21552 28.5483 6.85839 29.8842 2.48242 29.8842C4.03419 28.3416 6.00492 26.2589 6.82891 23.0239C4.13815 20.804 2.48242 17.7849 2.48242 14.4574C2.48242 7.64176 9.42967 2.11584 18.0001 2.11584C25.914 2.11584 32.4439 6.82722 33.3982 12.9147" stroke="white" stroke-width="3.26687" stroke-linecap="round" stroke-linejoin="round"/>
<path d="M24.2071 28.1704C19.0645 28.1704 14.8965 25.1004 14.8965 21.3131C14.8965 17.5273 19.0645 14.4574 24.2071 14.4574C29.3496 14.4574 33.5176 17.5273 33.5176 21.3131C33.5176 23.1628 32.5245 24.8397 30.9107 26.0723C31.4026 27.8695 32.5866 29.0265 33.5176 29.8843C30.7245 29.8843 29.3031 29.0451 27.6334 27.6906C26.572 27.9991 25.4174 28.1704 24.2071 28.1704Z" stroke="white" stroke-width="3.26687" stroke-linecap="round" stroke-linejoin="round"/>
</svg>
