<svg width="19" height="28" viewBox="0 0 19 28" fill="none" xmlns="http://www.w3.org/2000/svg">
<path d="M3.41362 1.25207L4.84829 0.793405C6.19362 0.364072 7.63096 1.05874 8.20695 2.41607L9.35362 5.12007C9.85229 6.29741 9.57496 7.68274 8.66829 8.54407L6.14162 10.9414C6.29762 12.3761 6.78029 13.7881 7.58829 15.1774C8.35558 16.5216 9.38478 17.6981 10.615 18.6374L13.6496 17.6241C14.799 17.2414 16.0523 17.6827 16.7563 18.7187L18.4003 21.1321C19.2203 22.3374 19.0723 23.9987 18.055 25.0201L16.9656 26.1147C15.8803 27.2041 14.3296 27.6001 12.8963 27.1521C9.50962 26.0961 6.39896 22.9614 3.55896 17.7481C0.714956 12.5267 -0.289044 8.09474 0.54829 4.4574C0.90029 2.92674 1.98962 1.70674 3.41362 1.25207Z" fill="currentColor"/>
</svg>
