<svg width="38" height="27" viewBox="0 0 38 27" fill="none" xmlns="http://www.w3.org/2000/svg">
<path d="M13.7657 15.33C17.5441 15.33 20.6071 12.3306 20.6071 8.63054C20.6071 4.9305 17.5441 1.93103 13.7657 1.93103C9.98732 1.93103 6.92432 4.9305 6.92432 8.63054C6.92432 12.3306 9.98732 15.33 13.7657 15.33Z" stroke="white" stroke-width="2.75862" stroke-linecap="round" stroke-linejoin="round"/>
<path d="M25.7379 25.3793C25.7379 19.8288 20.3777 15.33 13.7654 15.33C7.15321 15.33 1.79297 19.8288 1.79297 25.3793M24.0275 15.33C25.1707 15.33 26.2957 15.0494 27.2996 14.5139C28.3035 13.9785 29.1544 13.2052 29.7745 12.2648C30.3946 11.3243 30.7642 10.2467 30.8495 9.13034C30.9348 8.014 30.7331 6.89452 30.2627 5.87419C29.7924 4.85387 29.0685 3.96522 28.1571 3.28943C27.2457 2.61365 26.1759 2.17229 25.0455 2.00566C23.915 1.83903 22.76 1.95246 21.6858 2.33557C20.6117 2.71869 19.6527 3.35928 18.8965 4.19882" stroke="white" stroke-width="2.75862" stroke-linecap="round" stroke-linejoin="round"/>
<path d="M36 25.3793C36 19.8288 30.6398 15.3301 24.0275 15.3301C22.6473 15.3301 20.4307 14.8393 18.8965 13.2616" stroke="white" stroke-width="2.75862" stroke-linecap="round" stroke-linejoin="round"/>
</svg>
