<svg width="17" height="18" viewBox="0 0 17 18" fill="none" xmlns="http://www.w3.org/2000/svg">
<path d="M12.6904 1.15944C9.83181 0.613522 6.86322 0.613522 4.00458 1.15944C2.74018 1.43239 1.14594 2.96095 0.871073 4.16196C0.376309 6.50939 0.376309 8.91141 0.871073 11.2588C1.20092 12.4598 2.79516 13.9884 4.00458 14.2614C4.05955 14.2614 4.11453 14.316 4.11453 14.3705V17.8098C4.11453 17.9736 4.33442 18.0828 4.44437 17.919L6.09359 16.2267C6.09359 16.2267 7.41296 14.8619 7.63285 14.6435C7.63285 14.6435 7.68783 14.5889 7.7428 14.5889C9.39202 14.6435 11.0962 14.4797 12.7454 14.2068C14.0098 13.9338 15.6041 12.4053 15.8789 11.2042C16.3737 8.85682 16.3737 6.4548 15.8789 4.10737C15.5491 2.96095 13.9548 1.43239 12.6904 1.15944ZM12.7454 11.4226C12.4705 11.9685 12.1407 12.4053 11.591 12.6782C11.426 12.7328 11.2611 12.7874 11.0962 12.842C10.8763 12.7874 10.7114 12.7328 10.5465 12.6782C8.7873 11.9685 7.13809 10.9859 5.81872 9.56651C5.10406 8.74764 4.49934 7.81958 4.00458 6.83694C3.78468 6.34562 3.56479 5.90888 3.39987 5.41756C3.23495 4.98083 3.50981 4.5441 3.78468 4.21655C4.05955 3.889 4.3894 3.67064 4.77421 3.50686C5.04908 3.34309 5.32395 3.45227 5.54385 3.67064C5.98364 4.21655 6.42343 4.76247 6.75327 5.36297C6.97317 5.74511 6.91819 6.18184 6.53338 6.4548C6.42343 6.50939 6.36845 6.56398 6.25851 6.67316C6.20353 6.72776 6.09358 6.78235 6.03861 6.89153C5.92866 7.0553 5.92866 7.21908 5.98364 7.38285C6.42343 8.63845 7.24803 9.6211 8.51243 10.167C8.73233 10.2762 8.89725 10.3308 9.17212 10.3308C9.55694 10.2762 9.72186 9.83946 9.99673 9.6211C10.2716 9.40273 10.6014 9.40273 10.9313 9.56651C11.2062 9.73028 11.481 9.94864 11.8109 10.167C12.0857 10.3854 12.3606 10.5492 12.6355 10.7675C12.8004 10.8767 12.8554 11.1497 12.7454 11.4226ZM10.4365 7.32826C10.3266 7.32826 10.3815 7.32826 10.4365 7.32826C10.2166 7.32826 10.1616 7.21908 10.1067 7.0553C10.1067 6.94612 10.1067 6.78235 10.0517 6.67316C9.99673 6.4548 9.88678 6.23643 9.66689 6.07266C9.55694 6.01807 9.44699 5.96348 9.33704 5.90888C9.17212 5.85429 9.06217 5.85429 8.89725 5.85429C8.73233 5.7997 8.67736 5.69052 8.67736 5.52674C8.67736 5.41756 8.84228 5.30838 8.95222 5.30838C9.83181 5.36297 10.4915 5.85429 10.6014 6.89153C10.6014 6.94612 10.6014 7.0553 10.6014 7.10989C10.6014 7.21908 10.5465 7.32826 10.4365 7.32826ZM9.88678 4.92624C9.61191 4.81706 9.33704 4.70787 9.0072 4.65328C8.89725 4.65328 8.73233 4.59869 8.62238 4.59869C8.45746 4.59869 8.34751 4.48951 8.40249 4.32573C8.40249 4.16196 8.51243 4.05278 8.67736 4.10737C9.22709 4.16196 9.72186 4.27114 10.2166 4.48951C11.2062 4.98083 11.7559 5.7997 11.9208 6.89153C11.9208 6.94612 11.9208 7.00071 11.9208 7.0553C11.9208 7.16449 11.9208 7.27367 11.9208 7.43744C11.9208 7.49203 11.9208 7.54663 11.9208 7.60122C11.8658 7.81958 11.481 7.87417 11.426 7.60122C11.426 7.54663 11.3711 7.43744 11.3711 7.38285C11.3711 6.89153 11.2611 6.40021 11.0412 5.96348C10.7114 5.47215 10.3266 5.14461 9.88678 4.92624ZM12.8554 8.20172C12.6904 8.20172 12.5805 8.03795 12.5805 7.87417C12.5805 7.54663 12.5255 7.21908 12.4705 6.89153C12.2507 5.1446 10.8213 3.72523 9.11715 3.45227C8.84228 3.39768 8.56741 3.39768 8.34751 3.34309C8.18259 3.34309 7.96269 3.34309 7.90772 3.12472C7.85275 2.96095 8.01767 2.79718 8.18259 2.79718C8.23756 2.79718 8.29254 2.79718 8.29254 2.79718C10.5465 2.85177 8.40249 2.79718 8.29254 2.79718C10.6014 2.85177 12.5255 4.38033 12.9103 6.67316C12.9653 7.0553 13.0203 7.43744 13.0203 7.87417C13.1302 8.03795 13.0203 8.20172 12.8554 8.20172Z" fill="currentColor"/>
</svg>
