<svg width="17" height="17" viewBox="0 0 17 17" fill="none" xmlns="http://www.w3.org/2000/svg">
<path d="M13.9451 3.04687C12.4634 1.57031 10.4878 0.75 8.40244 0.75C4.06707 0.75 0.554877 4.25 0.554877 8.57031C0.554877 9.9375 0.939024 11.3047 1.59756 12.4531L0.5 16.5L4.67073 15.4062C5.82317 16.0078 7.08536 16.3359 8.40244 16.3359C12.7378 16.3359 16.25 12.8359 16.25 8.51563C16.1951 6.49219 15.4268 4.52344 13.9451 3.04687ZM12.189 11.3594C12.0244 11.7969 11.2561 12.2344 10.872 12.2891C10.5427 12.3437 10.1037 12.3438 9.66463 12.2344C9.39024 12.125 9.0061 12.0156 8.56707 11.7969C6.59146 10.9766 5.32927 9.00781 5.21951 8.84375C5.10976 8.73437 4.39634 7.80469 4.39634 6.82031C4.39634 5.83594 4.89024 5.39844 5.05488 5.17969C5.21951 4.96094 5.43902 4.96094 5.60366 4.96094C5.71341 4.96094 5.87805 4.96094 5.9878 4.96094C6.09756 4.96094 6.26219 4.90625 6.42683 5.28906C6.59146 5.67187 6.97561 6.65625 7.03049 6.71094C7.08536 6.82031 7.08536 6.92969 7.03049 7.03906C6.97561 7.14844 6.92073 7.25781 6.81097 7.36719C6.70122 7.47656 6.59146 7.64062 6.53658 7.69531C6.42683 7.80469 6.31707 7.91406 6.42683 8.07812C6.53659 8.29687 6.92073 8.89844 7.52439 9.44531C8.29268 10.1016 8.89634 10.3203 9.11585 10.4297C9.33537 10.5391 9.44512 10.4844 9.55488 10.375C9.66463 10.2656 10.0488 9.82813 10.1585 9.60938C10.2683 9.39063 10.4329 9.44531 10.5976 9.5C10.7622 9.55469 11.75 10.0469 11.9146 10.1563C12.1341 10.2656 12.2439 10.3203 12.2988 10.375C12.3537 10.5391 12.3537 10.9219 12.189 11.3594Z" fill="currentColor"/>
</svg>
