<?xml version="1.0" encoding="utf-8"?><svg viewBox="0 0 800 800" xmlns="http://www.w3.org/2000/svg" xmlns:xlink="http://www.w3.org/1999/xlink"><style>:root>svg{display:none}:root>svg:target{display:block}</style><svg fill="none" viewBox="0 0 38 15" id="arrow-big" xmlns="http://www.w3.org/2000/svg"><path d="M37.707 8.207a1 1 0 0 0 0-1.414L31.343.429a1 1 0 1 0-1.414 1.414L35.586 7.5l-5.657 5.657a1 1 0 0 0 1.414 1.414l6.364-6.364ZM0 8.5h37v-2H0v2Z" fill="currentColor"/></svg><svg fill="none" viewBox="0 0 30 22" id="camera" xmlns="http://www.w3.org/2000/svg"><path d="M22.5 11V5a3 3 0 0 0-3-3h-15a3 3 0 0 0-3 3v12a3 3 0 0 0 3 3h15a3 3 0 0 0 3-3v-6Zm0 0 6-6v12l-6-6Z" stroke="#00B53C" stroke-width="3" stroke-linecap="round" stroke-linejoin="round"/></svg><svg fill="none" viewBox="0 0 20 20" id="check" xmlns="http://www.w3.org/2000/svg"><path d="m8.717 14.217 6.462-6.463-1.283-1.283-5.18 5.179-2.612-2.613-1.283 1.284 3.896 3.896ZM10 19.167a8.92 8.92 0 0 1-3.575-.723 9.25 9.25 0 0 1-2.91-1.959 9.25 9.25 0 0 1-1.96-2.91A8.921 8.921 0 0 1 .834 10c0-1.268.241-2.46.723-3.575a9.25 9.25 0 0 1 1.959-2.91 9.264 9.264 0 0 1 2.91-1.96A8.931 8.931 0 0 1 10 .833c1.268 0 2.46.24 3.575.722a9.264 9.264 0 0 1 2.91 1.96 9.25 9.25 0 0 1 1.96 2.91A8.92 8.92 0 0 1 19.167 10a8.92 8.92 0 0 1-.723 3.575 9.25 9.25 0 0 1-1.958 2.91 9.25 9.25 0 0 1-2.91 1.96 8.92 8.92 0 0 1-3.576.722Z" fill="#FBBC3C" fill-opacity=".7"/></svg><svg fill="none" viewBox="0 0 24 24" id="grid" xmlns="http://www.w3.org/2000/svg"><path d="M10 19a.968.968 0 0 1-.713-.288A.964.964 0 0 1 9 18c0-.283.096-.521.288-.713A.964.964 0 0 1 10 17h10c.283 0 .521.096.713.288.192.192.288.43.287.712a.968.968 0 0 1-.288.713A.964.964 0 0 1 20 19H10Zm0-6a.968.968 0 0 1-.713-.288A.964.964 0 0 1 9 12c0-.283.096-.521.288-.713A.964.964 0 0 1 10 11h10c.283 0 .521.096.713.288.192.192.288.43.287.712a.968.968 0 0 1-.288.713A.964.964 0 0 1 20 13H10Zm0-6a.968.968 0 0 1-.713-.288A.964.964 0 0 1 9 6c0-.283.096-.521.288-.713A.964.964 0 0 1 10 5h10c.283 0 .521.096.713.288.192.192.288.43.287.712a.968.968 0 0 1-.288.713A.964.964 0 0 1 20 7H10ZM5 20c-.55 0-1.021-.196-1.413-.588A1.922 1.922 0 0 1 3 18c0-.55.196-1.021.588-1.413A1.922 1.922 0 0 1 5 16c.55 0 1.021.196 1.413.588.392.392.588.863.587 1.412 0 .55-.196 1.021-.588 1.413A1.922 1.922 0 0 1 5 20Zm0-6c-.55 0-1.021-.196-1.413-.588A1.922 1.922 0 0 1 3 12c0-.55.196-1.021.588-1.413A1.922 1.922 0 0 1 5 10c.55 0 1.021.196 1.413.588.392.392.588.863.587 1.412 0 .55-.196 1.021-.588 1.413A1.922 1.922 0 0 1 5 14Zm0-6c-.55 0-1.021-.196-1.413-.588A1.922 1.922 0 0 1 3 6c0-.55.196-1.021.588-1.413A1.922 1.922 0 0 1 5 4c.55 0 1.021.196 1.413.588.392.392.588.863.587 1.412 0 .55-.196 1.021-.588 1.413A1.922 1.922 0 0 1 5 8Z" fill="#1D9F93"/></svg><svg fill="none" viewBox="0 0 38 38" id="light" xmlns="http://www.w3.org/2000/svg"><path d="M34.3 19H36M30.05 7.95l1.7-1.7M19 3.7V2M7.95 7.95l-1.7-1.7M3.7 19H2m13.6 17h6.8m5.1-17a8.5 8.5 0 1 0-11.9 7.793V30.9h6.8v-4.107A8.501 8.501 0 0 0 27.5 19Z" stroke="#8375E1" stroke-width="3" stroke-linecap="round" stroke-linejoin="round"/></svg><svg fill="none" viewBox="0 0 36 32" id="message" xmlns="http://www.w3.org/2000/svg"><path d="M11.793 26.367c-2.577 2.181-4.935 3.517-9.31 3.517 1.551-1.542 3.522-3.625 4.346-6.86-2.69-2.22-4.347-5.24-4.347-8.567C2.482 7.642 9.43 2.116 18 2.116c7.914 0 14.444 4.711 15.398 10.799" stroke="#fff" stroke-width="3.267" stroke-linecap="round" stroke-linejoin="round"/><path d="M24.207 28.17c-5.143 0-9.31-3.07-9.31-6.857 0-3.786 4.167-6.856 9.31-6.856 5.143 0 9.31 3.07 9.31 6.856 0 1.85-.992 3.527-2.606 4.76.492 1.796 1.676 2.953 2.607 3.811-2.794 0-4.215-.839-5.885-2.193-1.061.308-2.216.48-3.426.48Z" stroke="#fff" stroke-width="3.267" stroke-linecap="round" stroke-linejoin="round"/></svg><svg fill="none" viewBox="0 0 19 28" id="phone" xmlns="http://www.w3.org/2000/svg"><path d="M3.414 1.252 4.848.793c1.346-.429 2.783.266 3.359 1.623L9.354 5.12c.498 1.177.221 2.563-.686 3.424l-2.526 2.397c.156 1.435.638 2.847 1.446 4.236a11.569 11.569 0 0 0 3.027 3.46l3.035-1.013c1.149-.383 2.402.059 3.106 1.095l1.644 2.413c.82 1.205.672 2.867-.345 3.888l-1.09 1.095c-1.085 1.09-2.635 1.485-4.069 1.037-3.386-1.056-6.497-4.19-9.337-9.404C.715 12.527-.289 8.095.549 4.458.9 2.926 1.988 1.706 3.413 1.251Z" fill="currentColor"/></svg><svg fill="none" viewBox="0 0 20 19" id="star" xmlns="http://www.w3.org/2000/svg"><path d="m15.665 18.25-1.499-6.443 5-4.333-6.59-.566L10 .833 7.425 6.908l-6.592.566 5 4.333-1.498 6.443L10 14.833l5.665 3.417Z" fill="#FBBC3C"/></svg><svg viewBox="0 0 24 24" fill="none" id="star-fill" xmlns="http://www.w3.org/2000/svg"><path d="M21.12 9.88a.74.74 0 0 0-.6-.51l-5.42-.79-2.43-4.91a.78.78 0 0 0-1.34 0L8.9 8.58l-5.42.79a.74.74 0 0 0-.6.51.75.75 0 0 0 .18.77L7 14.47l-.93 5.4a.76.76 0 0 0 .3.74.751.751 0 0 0 .79.05L12 18.11l4.85 2.55a.73.73 0 0 0 .35.09.791.791 0 0 0 .44-.14.76.76 0 0 0 .3-.74l-.94-5.4 3.93-3.82a.75.75 0 0 0 .19-.77Z" fill="currentColor"/></svg><svg fill="none" viewBox="0 0 15 13" id="telegram" xmlns="http://www.w3.org/2000/svg"><path d="m15 .452-2.254 11.767s-.315.816-1.182.425l-5.2-4.13-.025-.012c.703-.653 6.15-5.725 6.388-5.955.369-.356.14-.568-.288-.299L4.393 7.54 1.288 6.458S.8 6.278.753 5.887c-.048-.392.551-.604.551-.604L13.96.142S15-.332 15 .452Z" fill="currentColor"/></svg><svg fill="none" viewBox="0 0 20 20" id="uncheck" xmlns="http://www.w3.org/2000/svg"><path d="M10 .833A9.158 9.158 0 0 1 19.167 10 9.158 9.158 0 0 1 10 19.167 9.158 9.158 0 0 1 .833 10 9.158 9.158 0 0 1 10 .833Zm3.291 4.584-3.29 3.29-3.292-3.29-1.292 1.292L8.707 10l-3.29 3.29 1.292 1.293L10 11.293l3.291 3.29 1.293-1.292L11.293 10l3.29-3.29-1.292-1.293Z" fill="#9CADB4"/></svg><svg fill="none" viewBox="0 0 38 27" id="user" xmlns="http://www.w3.org/2000/svg"><path d="M13.766 15.33c3.778 0 6.841-3 6.841-6.7s-3.063-6.699-6.841-6.699c-3.779 0-6.842 3-6.842 6.7s3.063 6.699 6.842 6.699Z" stroke="#fff" stroke-width="2.759" stroke-linecap="round" stroke-linejoin="round"/><path d="M25.738 25.38c0-5.551-5.36-10.05-11.973-10.05-6.612 0-11.972 4.499-11.972 10.05m22.235-10.05c1.143 0 2.268-.28 3.272-.816a6.787 6.787 0 0 0 2.474-2.25 6.576 6.576 0 0 0 .488-6.39 6.726 6.726 0 0 0-2.105-2.585 6.919 6.919 0 0 0-3.111-1.283 6.978 6.978 0 0 0-3.36.33 6.849 6.849 0 0 0-2.79 1.863" stroke="#fff" stroke-width="2.759" stroke-linecap="round" stroke-linejoin="round"/><path d="M36 25.38c0-5.551-5.36-10.05-11.973-10.05-1.38 0-3.596-.49-5.13-2.068" stroke="#fff" stroke-width="2.759" stroke-linecap="round" stroke-linejoin="round"/></svg><svg fill="none" viewBox="0 0 32 32" id="user-1" xmlns="http://www.w3.org/2000/svg"><path fill-rule="evenodd" clip-rule="evenodd" d="M24 8c0 4.42-3.58 8-8 8s-8-3.58-8-8 3.58-8 8-8 8 3.58 8 8ZM0 28c0-5.32 10.66-8 16-8s16 2.68 16 8v4H0v-4Z" fill="currentColor"/></svg><svg fill="none" viewBox="0 0 17 18" id="viber" xmlns="http://www.w3.org/2000/svg"><path d="M12.69 1.16a23.237 23.237 0 0 0-8.685 0C2.74 1.431 1.145 2.96.87 4.161a17.152 17.152 0 0 0 0 7.097c.33 1.2 1.924 2.73 3.134 3.002.055 0 .11.055.11.11v3.439c0 .164.22.273.33.109l1.649-1.692s1.319-1.365 1.539-1.584c0 0 .055-.054.11-.054 1.649.054 3.353-.11 5.002-.382 1.265-.273 2.86-1.802 3.134-3.003a17.15 17.15 0 0 0 0-7.097c-.33-1.146-1.924-2.675-3.189-2.948Zm.055 10.263c-.274.546-.604.982-1.154 1.255l-.495.164c-.22-.055-.385-.11-.55-.164-1.759-.71-3.408-1.692-4.727-3.111a13.129 13.129 0 0 1-1.814-2.73c-.22-.491-.44-.928-.605-1.42-.165-.436.11-.873.385-1.2.275-.328.604-.546.99-.71.274-.164.549-.055.769.164.44.546.88 1.091 1.21 1.692.22.382.164.819-.22 1.092-.11.054-.166.109-.275.218-.055.055-.165.11-.22.219a.527.527 0 0 0-.055.49c.44 1.256 1.264 2.24 2.528 2.785.22.11.385.164.66.164.385-.055.55-.492.825-.71.275-.218.604-.218.934-.054.275.163.55.382.88.6.275.218.55.382.825.6.164.11.22.383.11.656Zm-2.308-4.095c-.11 0-.055 0 0 0-.22 0-.275-.109-.33-.273 0-.109 0-.273-.055-.382a1.037 1.037 0 0 0-.385-.6l-.33-.164c-.165-.055-.275-.055-.44-.055-.165-.054-.22-.163-.22-.327 0-.11.165-.219.275-.219.88.055 1.54.546 1.65 1.584v.218c0 .11-.056.218-.165.218Zm-.55-2.402c-.275-.109-.55-.218-.88-.273-.11 0-.275-.054-.385-.054-.165 0-.274-.11-.22-.273 0-.164.11-.273.275-.219.55.055 1.045.164 1.54.383.99.49 1.539 1.31 1.704 2.402V7.6c-.055.219-.44.273-.495 0 0-.054-.055-.164-.055-.218 0-.491-.11-.983-.33-1.42a2.948 2.948 0 0 0-1.154-1.037Zm2.968 3.276c-.165 0-.274-.164-.274-.328 0-.327-.056-.655-.11-.982-.22-1.747-1.65-3.167-3.354-3.44-.275-.054-.55-.054-.77-.109-.164 0-.384 0-.44-.218-.054-.164.11-.328.276-.328h.11c2.254.055.11 0 0 0 2.308.055 4.232 1.583 4.617 3.876.055.382.11.764.11 1.201.11.164 0 .328-.165.328Z" fill="currentColor"/></svg><svg fill="none" viewBox="0 0 17 17" id="whatsapp" xmlns="http://www.w3.org/2000/svg"><path d="M13.945 3.047A7.821 7.821 0 0 0 8.402.75C4.067.75.555 4.25.555 8.57c0 1.367.384 2.735 1.043 3.883L.5 16.5l4.17-1.094a8.023 8.023 0 0 0 3.732.93c4.336 0 7.848-3.5 7.848-7.82-.055-2.024-.823-3.993-2.305-5.47Zm-1.756 8.312c-.165.438-.933.875-1.317.93-.33.055-.768.055-1.207-.055-.275-.109-.659-.218-1.098-.437-1.976-.82-3.238-2.79-3.347-2.953-.11-.11-.824-1.04-.824-2.024s.494-1.422.659-1.64c.165-.22.384-.22.549-.22h.384c.11 0 .274-.054.439.33.164.382.549 1.366.603 1.42a.348.348 0 0 1 0 .33c-.054.108-.11.218-.219.327-.11.11-.22.274-.274.328-.11.11-.22.22-.11.383.11.219.494.82 1.097 1.367.769.657 1.372.875 1.592.985.22.11.33.054.439-.055.11-.11.494-.547.604-.766.11-.218.274-.164.439-.109.164.055 1.152.547 1.317.656.22.11.329.164.384.219.055.164.055.547-.11.984Z" fill="currentColor"/></svg></svg>